<svg width="303" height="164" viewBox="0 0 303 164" fill="none" xmlns="http://www.w3.org/2000/svg">
<mask id="path-1-outside-1_33_2" maskUnits="userSpaceOnUse" x="0" y="0" width="303" height="164" fill="black">
<rect fill="white" width="303" height="164"/>
<path fill-rule="evenodd" clip-rule="evenodd" d="M154.864 28.8706V27.9715H139.368C130.272 27.9715 126.679 21.1163 125.893 16.2839C124.882 10.2153 126.23 4.25906 130.047 2.57334C137.571 -0.910487 144.87 10.1029 147.565 16.9582H148.351L150.035 5.15811C145.993 2.23619 140.266 1 135.437 1C124.321 1 118.144 6.95621 118.144 14.5982C118.144 22.1277 127.465 27.6344 134.202 27.9715H117.695V28.8706C122.075 28.8706 124.321 31.7925 124.321 37.8611V74.6098C124.321 78.5432 123.535 80.2289 121.85 81.2404V82.027H135.662V81.2404C133.978 80.2289 133.192 78.5432 133.192 74.6098V28.8706H154.864ZM53.544 57.7526C53.544 39.2097 68.928 27.9715 83.9752 27.9715C99.0223 27.9715 112.048 37.4116 112.048 52.9202C112.048 70.9013 96.6642 82.7013 81.617 82.7013C66.4576 82.7013 53.544 73.486 53.544 57.7526ZM62.9765 61.3488C66.9068 74.8346 77.4622 84.4994 90.2635 80.6785C103.065 76.9699 106.546 62.9222 102.616 49.324C98.6855 35.8382 88.13 26.2858 75.3287 29.9944C62.5274 33.703 59.0463 47.7507 62.9765 61.3488ZM168.047 74.6098C167.995 74.2432 167.923 73.7725 167.837 73.2093C166.62 65.2666 162.586 38.9291 173.153 26.5317C173.256 26.4114 172.738 26.6631 172.035 27.0042L172.035 27.0044C171.372 27.3261 170.546 27.7274 169.922 27.9715C165.979 29.5134 159.366 30.4439 159.366 30.4439V31.2306C161.5 31.5678 161.837 32.6916 161.837 36.6249V74.6098C161.837 78.5432 161.051 80.2289 159.366 81.2404V82.027H173.29V81.2404C172.98 81.0658 172.644 80.9189 172.297 80.7669C170.63 80.0384 168.693 79.1921 168.047 74.6098ZM231.271 81.2404C229.587 80.2289 228.801 78.5432 228.801 74.6098V46.7393C228.801 32.9163 218.919 27.9715 209.599 27.9715C194.551 27.9715 191.07 41.9068 193.99 48.425C185.343 52.0212 178.494 58.7641 180.403 70.227C181.862 78.3184 190.846 82.7013 200.054 82.7013C210.834 82.7013 217.01 76.1832 219.929 66.2936V82.027H231.271V81.2404ZM208.588 29.0954C216.561 29.0954 219.929 36.6249 219.929 45.1659V45.9526C218.02 45.3907 215.775 44.9411 213.192 44.9411C207.914 44.9411 201.177 45.7278 195.113 47.9754C191.744 38.8725 198.482 29.0954 208.588 29.0954ZM202.749 81.2404C197.134 81.5775 190.621 77.8689 189.161 71.8003C184.333 52.0212 200.952 45.9526 213.192 45.9526C216.673 45.9526 219.368 46.7393 219.929 46.964V64.2708C217.684 72.3622 212.518 80.6784 202.749 81.2404ZM165.441 13.9112L165.441 13.911C165.093 13.1607 164.651 12.2081 164.101 11.7003C163.627 11.1868 162.862 10.9298 162.237 10.7199C161.661 10.5264 161.204 10.3729 161.204 10.0953C161.204 9.81586 161.667 9.65205 162.248 9.44632C162.871 9.22589 163.629 8.95733 164.101 8.44689C164.639 7.90903 165.073 6.95882 165.418 6.20552C165.706 5.57669 165.931 5.08507 166.1 5.08507C166.143 5.08507 166.279 5.35456 166.479 5.7497C166.873 6.5276 167.513 7.79246 168.167 8.44689C168.957 9.23621 169.815 9.49179 170.4 9.66591C170.829 9.79347 171.111 9.87732 171.111 10.0953C171.111 10.3355 170.669 10.4861 170.105 10.6783C169.46 10.8985 168.654 11.1734 168.167 11.7003C167.702 12.1659 167.287 13.0054 166.934 13.7201L166.934 13.7205C166.597 14.4039 166.316 14.973 166.1 14.9916C165.935 14.9748 165.718 14.5067 165.441 13.9112ZM295.212 92.4377C295.049 92.4212 294.836 91.9612 294.564 91.3757C294.222 90.6383 293.787 89.702 293.246 89.2029C292.78 88.6983 292.029 88.4457 291.415 88.2394C290.848 88.0492 290.399 87.8984 290.399 87.6255C290.399 87.3509 290.854 87.1899 291.425 86.9877C292.037 86.771 292.783 86.5071 293.246 86.0054C293.775 85.4768 294.202 84.5429 294.541 83.8025C294.824 83.1845 295.045 82.7013 295.212 82.7013C295.253 82.7013 295.387 82.9662 295.584 83.3545C295.971 84.119 296.6 85.3622 297.243 86.0054C298.019 86.7812 298.863 87.0324 299.438 87.2035C299.859 87.3289 300.136 87.4113 300.136 87.6255C300.136 87.8616 299.702 88.0096 299.148 88.1986C298.513 88.415 297.721 88.6851 297.243 89.2029C296.785 89.6606 296.378 90.486 296.031 91.1885C295.699 91.8602 295.423 92.4195 295.212 92.4377ZM282.078 161.564C280.423 160.57 279.65 158.913 279.65 155.048V82.7014H278.878L268.393 85.0209V85.9045C270.6 86.2358 270.931 87.3404 270.931 91.2062V110.204C269.055 109.652 266.848 109.21 264.309 109.21C252.059 109.21 226.675 113.849 227.337 141.131C227.779 155.268 238.815 163 247.755 163C263.206 163 268.834 145.549 270.931 132.736V162.337H282.078V161.564ZM252.721 161.012C243.23 162.779 236.498 152.397 235.946 142.787C234.401 114.622 253.604 109.983 264.309 109.762C267.246 109.762 269.496 110.373 270.488 110.642C270.689 110.697 270.838 110.738 270.931 110.756V126.22C270.931 135.497 265.082 158.582 252.721 161.012ZM127.767 155.048C127.767 158.913 128.54 160.57 130.195 161.564V162.337H119.048V146.874C116.179 156.594 110.109 163 99.514 163C90.4641 163 81.6349 158.692 80.2002 150.74C78.324 139.474 85.0562 132.847 93.5543 129.312C90.6848 122.906 94.1061 109.21 108.895 109.21C118.055 109.21 127.767 114.07 127.767 127.655V155.048ZM119.048 126.109C119.048 117.715 115.738 110.314 107.902 110.314C97.9689 110.314 91.347 119.924 94.658 128.87C100.618 126.661 107.239 125.888 112.427 125.888C114.965 125.888 117.172 126.33 119.048 126.882V126.109ZM88.8086 152.286C90.2433 158.251 96.6445 161.896 102.163 161.564C111.764 161.012 116.841 152.838 119.048 144.886V127.876C118.497 127.655 115.848 126.882 112.427 126.882C100.397 126.882 84.0629 132.847 88.8086 152.286ZM217.919 148.522L217.92 148.525L217.921 148.534L217.922 148.547C218.189 151.369 218.405 153.649 218.556 155.048C218.997 159.024 219.99 160.57 221.646 161.564V162.337H208.071V161.564C209.727 160.57 210.278 158.692 209.947 155.048C209.679 152.836 209.005 145.092 208.393 138.061L208.392 138.053L208.391 138.039L208.391 138.033L208.39 138.031L208.389 138.02L208.388 138.008L208.387 137.99L208.386 137.978C207.992 133.454 207.625 129.237 207.409 126.993C206.526 118.709 203.326 109.32 194.717 111.198C184.564 113.407 183.239 130.527 183.129 142.125V155.048C183.129 158.913 183.901 160.57 185.557 161.564V162.337H171.982V161.564C173.637 160.57 174.41 158.913 174.41 155.048V126.993C174.41 118.598 170.547 109.541 161.939 111.198C149.578 113.518 149.026 136.602 149.026 145.99V155.048C149.026 158.913 149.909 160.57 151.565 161.564V162.337H137.879V161.564C139.535 160.57 140.418 158.913 140.418 155.048V117.715C140.418 113.849 140.087 112.744 137.879 112.413V111.64L148.254 109.21H149.026V133.73C150.24 122.022 153.551 109.21 166.795 109.21C175.293 109.21 182.577 116.5 183.018 128.649L183.129 129.864C184.453 119.151 188.537 109.21 199.683 109.21C208.402 109.21 214.583 115.727 215.907 128.649C216.704 135.684 217.406 143.1 217.919 148.52L217.919 148.522ZM296.164 153.673L296.164 153.676L296.166 153.684C296.249 154.232 296.32 154.69 296.37 155.048C297.005 159.551 298.908 160.383 300.547 161.099C300.889 161.248 301.219 161.393 301.524 161.564V162.337H287.838V161.564C289.494 160.57 290.266 158.913 290.266 155.048V117.715C290.266 113.849 289.935 112.744 287.838 112.413V111.64C287.838 111.64 294.337 110.725 298.213 109.21C298.827 108.97 299.639 108.575 300.29 108.259L300.29 108.259C300.98 107.924 301.489 107.677 301.389 107.795C291.003 119.979 294.968 145.865 296.164 153.671L296.164 153.673ZM73.2559 154.315C73.6267 157.652 74.4609 158.949 75.8512 159.783V160.432H64.4505V159.783C65.8408 158.949 66.3043 157.373 66.0262 154.315C65.8009 152.456 65.2334 145.943 64.7188 140.037C64.3865 136.224 64.0762 132.663 63.8943 130.772C63.1528 123.82 59.7234 115.942 51.7521 117.517C41.371 119.556 39.5172 138.928 39.5172 146.714V154.315C39.5172 157.559 40.166 158.949 41.5564 159.783V160.432H30.063V159.783C31.546 158.949 32.1948 157.559 32.1948 154.315V100.741C32.1948 97.4965 31.9167 96.5697 30.063 96.2916V95.5501L38.7757 93.6036H39.5172V138.836C40.6295 128.455 43.8736 115.849 55.9231 115.849C63.4309 115.849 69.9191 121.039 71.0314 132.162C71.7009 138.066 72.2906 144.291 72.7215 148.839L72.7217 148.842C72.9468 151.218 73.1287 153.138 73.2559 154.315ZM42.999 33.7603C38.371 30.1736 30.5034 26.3555 24.487 26.3555C11.8758 26.3555 7.71058 33.1818 6.78498 40.7022C5.25953 53.1601 16.7583 56.7489 27.0672 59.9664C35.5238 62.6057 43.1797 64.9952 42.1891 71.8254C41.4949 76.8005 35.2471 81.0814 26.9167 81.0814C16.6195 81.0814 7.94198 71.4783 4.00819 63.3794H3.42969L1 74.9493C7.24778 79.5773 14.1898 82.7012 23.5614 82.7012C36.5198 82.7012 45.0816 75.8749 45.7758 66.7347C46.4413 56.8728 36.0968 53.3069 26.3067 49.9322C17.375 46.8533 8.90471 43.9335 9.67747 36.537C10.256 31.7934 14.6526 27.3968 22.5201 27.3968C29.115 27.3968 36.5198 34.5702 40.1065 44.4046H40.685L42.999 33.7603Z"/>
</mask>
<path fill-rule="evenodd" clip-rule="evenodd" d="M154.864 28.8706V27.9715H139.368C130.272 27.9715 126.679 21.1163 125.893 16.2839C124.882 10.2153 126.23 4.25906 130.047 2.57334C137.571 -0.910487 144.87 10.1029 147.565 16.9582H148.351L150.035 5.15811C145.993 2.23619 140.266 1 135.437 1C124.321 1 118.144 6.95621 118.144 14.5982C118.144 22.1277 127.465 27.6344 134.202 27.9715H117.695V28.8706C122.075 28.8706 124.321 31.7925 124.321 37.8611V74.6098C124.321 78.5432 123.535 80.2289 121.85 81.2404V82.027H135.662V81.2404C133.978 80.2289 133.192 78.5432 133.192 74.6098V28.8706H154.864ZM53.544 57.7526C53.544 39.2097 68.928 27.9715 83.9752 27.9715C99.0223 27.9715 112.048 37.4116 112.048 52.9202C112.048 70.9013 96.6642 82.7013 81.617 82.7013C66.4576 82.7013 53.544 73.486 53.544 57.7526ZM62.9765 61.3488C66.9068 74.8346 77.4622 84.4994 90.2635 80.6785C103.065 76.9699 106.546 62.9222 102.616 49.324C98.6855 35.8382 88.13 26.2858 75.3287 29.9944C62.5274 33.703 59.0463 47.7507 62.9765 61.3488ZM168.047 74.6098C167.995 74.2432 167.923 73.7725 167.837 73.2093C166.62 65.2666 162.586 38.9291 173.153 26.5317C173.256 26.4114 172.738 26.6631 172.035 27.0042L172.035 27.0044C171.372 27.3261 170.546 27.7274 169.922 27.9715C165.979 29.5134 159.366 30.4439 159.366 30.4439V31.2306C161.5 31.5678 161.837 32.6916 161.837 36.6249V74.6098C161.837 78.5432 161.051 80.2289 159.366 81.2404V82.027H173.29V81.2404C172.98 81.0658 172.644 80.9189 172.297 80.7669C170.63 80.0384 168.693 79.1921 168.047 74.6098ZM231.271 81.2404C229.587 80.2289 228.801 78.5432 228.801 74.6098V46.7393C228.801 32.9163 218.919 27.9715 209.599 27.9715C194.551 27.9715 191.07 41.9068 193.99 48.425C185.343 52.0212 178.494 58.7641 180.403 70.227C181.862 78.3184 190.846 82.7013 200.054 82.7013C210.834 82.7013 217.01 76.1832 219.929 66.2936V82.027H231.271V81.2404ZM208.588 29.0954C216.561 29.0954 219.929 36.6249 219.929 45.1659V45.9526C218.02 45.3907 215.775 44.9411 213.192 44.9411C207.914 44.9411 201.177 45.7278 195.113 47.9754C191.744 38.8725 198.482 29.0954 208.588 29.0954ZM202.749 81.2404C197.134 81.5775 190.621 77.8689 189.161 71.8003C184.333 52.0212 200.952 45.9526 213.192 45.9526C216.673 45.9526 219.368 46.7393 219.929 46.964V64.2708C217.684 72.3622 212.518 80.6784 202.749 81.2404ZM165.441 13.9112L165.441 13.911C165.093 13.1607 164.651 12.2081 164.101 11.7003C163.627 11.1868 162.862 10.9298 162.237 10.7199C161.661 10.5264 161.204 10.3729 161.204 10.0953C161.204 9.81586 161.667 9.65205 162.248 9.44632C162.871 9.22589 163.629 8.95733 164.101 8.44689C164.639 7.90903 165.073 6.95882 165.418 6.20552C165.706 5.57669 165.931 5.08507 166.1 5.08507C166.143 5.08507 166.279 5.35456 166.479 5.7497C166.873 6.5276 167.513 7.79246 168.167 8.44689C168.957 9.23621 169.815 9.49179 170.4 9.66591C170.829 9.79347 171.111 9.87732 171.111 10.0953C171.111 10.3355 170.669 10.4861 170.105 10.6783C169.46 10.8985 168.654 11.1734 168.167 11.7003C167.702 12.1659 167.287 13.0054 166.934 13.7201L166.934 13.7205C166.597 14.4039 166.316 14.973 166.1 14.9916C165.935 14.9748 165.718 14.5067 165.441 13.9112ZM295.212 92.4377C295.049 92.4212 294.836 91.9612 294.564 91.3757C294.222 90.6383 293.787 89.702 293.246 89.2029C292.78 88.6983 292.029 88.4457 291.415 88.2394C290.848 88.0492 290.399 87.8984 290.399 87.6255C290.399 87.3509 290.854 87.1899 291.425 86.9877C292.037 86.771 292.783 86.5071 293.246 86.0054C293.775 85.4768 294.202 84.5429 294.541 83.8025C294.824 83.1845 295.045 82.7013 295.212 82.7013C295.253 82.7013 295.387 82.9662 295.584 83.3545C295.971 84.119 296.6 85.3622 297.243 86.0054C298.019 86.7812 298.863 87.0324 299.438 87.2035C299.859 87.3289 300.136 87.4113 300.136 87.6255C300.136 87.8616 299.702 88.0096 299.148 88.1986C298.513 88.415 297.721 88.6851 297.243 89.2029C296.785 89.6606 296.378 90.486 296.031 91.1885C295.699 91.8602 295.423 92.4195 295.212 92.4377ZM282.078 161.564C280.423 160.57 279.65 158.913 279.65 155.048V82.7014H278.878L268.393 85.0209V85.9045C270.6 86.2358 270.931 87.3404 270.931 91.2062V110.204C269.055 109.652 266.848 109.21 264.309 109.21C252.059 109.21 226.675 113.849 227.337 141.131C227.779 155.268 238.815 163 247.755 163C263.206 163 268.834 145.549 270.931 132.736V162.337H282.078V161.564ZM252.721 161.012C243.23 162.779 236.498 152.397 235.946 142.787C234.401 114.622 253.604 109.983 264.309 109.762C267.246 109.762 269.496 110.373 270.488 110.642C270.689 110.697 270.838 110.738 270.931 110.756V126.22C270.931 135.497 265.082 158.582 252.721 161.012ZM127.767 155.048C127.767 158.913 128.54 160.57 130.195 161.564V162.337H119.048V146.874C116.179 156.594 110.109 163 99.514 163C90.4641 163 81.6349 158.692 80.2002 150.74C78.324 139.474 85.0562 132.847 93.5543 129.312C90.6848 122.906 94.1061 109.21 108.895 109.21C118.055 109.21 127.767 114.07 127.767 127.655V155.048ZM119.048 126.109C119.048 117.715 115.738 110.314 107.902 110.314C97.9689 110.314 91.347 119.924 94.658 128.87C100.618 126.661 107.239 125.888 112.427 125.888C114.965 125.888 117.172 126.33 119.048 126.882V126.109ZM88.8086 152.286C90.2433 158.251 96.6445 161.896 102.163 161.564C111.764 161.012 116.841 152.838 119.048 144.886V127.876C118.497 127.655 115.848 126.882 112.427 126.882C100.397 126.882 84.0629 132.847 88.8086 152.286ZM217.919 148.522L217.92 148.525L217.921 148.534L217.922 148.547C218.189 151.369 218.405 153.649 218.556 155.048C218.997 159.024 219.99 160.57 221.646 161.564V162.337H208.071V161.564C209.727 160.57 210.278 158.692 209.947 155.048C209.679 152.836 209.005 145.092 208.393 138.061L208.392 138.053L208.391 138.039L208.391 138.033L208.39 138.031L208.389 138.02L208.388 138.008L208.387 137.99L208.386 137.978C207.992 133.454 207.625 129.237 207.409 126.993C206.526 118.709 203.326 109.32 194.717 111.198C184.564 113.407 183.239 130.527 183.129 142.125V155.048C183.129 158.913 183.901 160.57 185.557 161.564V162.337H171.982V161.564C173.637 160.57 174.41 158.913 174.41 155.048V126.993C174.41 118.598 170.547 109.541 161.939 111.198C149.578 113.518 149.026 136.602 149.026 145.99V155.048C149.026 158.913 149.909 160.57 151.565 161.564V162.337H137.879V161.564C139.535 160.57 140.418 158.913 140.418 155.048V117.715C140.418 113.849 140.087 112.744 137.879 112.413V111.64L148.254 109.21H149.026V133.73C150.24 122.022 153.551 109.21 166.795 109.21C175.293 109.21 182.577 116.5 183.018 128.649L183.129 129.864C184.453 119.151 188.537 109.21 199.683 109.21C208.402 109.21 214.583 115.727 215.907 128.649C216.704 135.684 217.406 143.1 217.919 148.52L217.919 148.522ZM296.164 153.673L296.164 153.676L296.166 153.684C296.249 154.232 296.32 154.69 296.37 155.048C297.005 159.551 298.908 160.383 300.547 161.099C300.889 161.248 301.219 161.393 301.524 161.564V162.337H287.838V161.564C289.494 160.57 290.266 158.913 290.266 155.048V117.715C290.266 113.849 289.935 112.744 287.838 112.413V111.64C287.838 111.64 294.337 110.725 298.213 109.21C298.827 108.97 299.639 108.575 300.29 108.259L300.29 108.259C300.98 107.924 301.489 107.677 301.389 107.795C291.003 119.979 294.968 145.865 296.164 153.671L296.164 153.673ZM73.2559 154.315C73.6267 157.652 74.4609 158.949 75.8512 159.783V160.432H64.4505V159.783C65.8408 158.949 66.3043 157.373 66.0262 154.315C65.8009 152.456 65.2334 145.943 64.7188 140.037C64.3865 136.224 64.0762 132.663 63.8943 130.772C63.1528 123.82 59.7234 115.942 51.7521 117.517C41.371 119.556 39.5172 138.928 39.5172 146.714V154.315C39.5172 157.559 40.166 158.949 41.5564 159.783V160.432H30.063V159.783C31.546 158.949 32.1948 157.559 32.1948 154.315V100.741C32.1948 97.4965 31.9167 96.5697 30.063 96.2916V95.5501L38.7757 93.6036H39.5172V138.836C40.6295 128.455 43.8736 115.849 55.9231 115.849C63.4309 115.849 69.9191 121.039 71.0314 132.162C71.7009 138.066 72.2906 144.291 72.7215 148.839L72.7217 148.842C72.9468 151.218 73.1287 153.138 73.2559 154.315ZM42.999 33.7603C38.371 30.1736 30.5034 26.3555 24.487 26.3555C11.8758 26.3555 7.71058 33.1818 6.78498 40.7022C5.25953 53.1601 16.7583 56.7489 27.0672 59.9664C35.5238 62.6057 43.1797 64.9952 42.1891 71.8254C41.4949 76.8005 35.2471 81.0814 26.9167 81.0814C16.6195 81.0814 7.94198 71.4783 4.00819 63.3794H3.42969L1 74.9493C7.24778 79.5773 14.1898 82.7012 23.5614 82.7012C36.5198 82.7012 45.0816 75.8749 45.7758 66.7347C46.4413 56.8728 36.0968 53.3069 26.3067 49.9322C17.375 46.8533 8.90471 43.9335 9.67747 36.537C10.256 31.7934 14.6526 27.3968 22.5201 27.3968C29.115 27.3968 36.5198 34.5702 40.1065 44.4046H40.685L42.999 33.7603Z" fill="black"/>
<path d="M154.864 27.9715H155.567V27.2682H154.864V27.9715ZM154.864 28.8706V29.5739H155.567V28.8706H154.864ZM125.893 16.2839L126.587 16.171L126.586 16.1683L125.893 16.2839ZM130.047 2.57334L130.332 3.21686L130.343 3.21158L130.047 2.57334ZM147.565 16.9582L146.91 17.2155L147.086 17.6615H147.565V16.9582ZM148.351 16.9582V17.6615H148.961L149.047 17.0576L148.351 16.9582ZM150.035 5.15811L150.732 5.2575L150.792 4.83694L150.447 4.58808L150.035 5.15811ZM134.202 27.9715V28.6749L134.237 27.2691L134.202 27.9715ZM117.695 27.9715V27.2682H116.992V27.9715H117.695ZM117.695 28.8706H116.992V29.5739H117.695V28.8706ZM121.85 81.2404L121.488 80.6374L121.147 80.8423V81.2404H121.85ZM121.85 82.027H121.147V82.7304H121.85V82.027ZM135.662 82.027V82.7304H136.365V82.027H135.662ZM135.662 81.2404H136.365V80.8423L136.024 80.6374L135.662 81.2404ZM133.192 28.8706V28.1673H132.488V28.8706H133.192ZM90.2635 80.6785L90.0678 80.0029L90.0624 80.0045L90.2635 80.6785ZM62.9765 61.3488L62.3008 61.5441L62.3013 61.5456L62.9765 61.3488ZM102.616 49.324L103.291 49.1287L103.291 49.1272L102.616 49.324ZM75.3287 29.9944L75.133 29.3188H75.133L75.3287 29.9944ZM167.837 73.2093L168.532 73.1028V73.1028L167.837 73.2093ZM168.047 74.6098L167.35 74.7081L167.351 74.7081L168.047 74.6098ZM173.153 26.5317L172.618 26.0753L172.618 26.0754L173.153 26.5317ZM172.035 27.0042L172.334 27.6411L172.342 27.6369L172.035 27.0042ZM172.035 27.0044L171.736 26.3675L171.728 26.3717L172.035 27.0044ZM169.922 27.9715L170.178 28.6266L170.178 28.6266L169.922 27.9715ZM159.366 30.4439L159.268 29.7475L158.663 29.8326V30.4439H159.366ZM159.366 31.2306H158.663V31.8315L159.256 31.9253L159.366 31.2306ZM159.366 81.2404L159.004 80.6374L158.663 80.8423V81.2404H159.366ZM159.366 82.027H158.663V82.7304H159.366V82.027ZM173.29 82.027V82.7304H173.994V82.027H173.29ZM173.29 81.2404H173.994V80.8292L173.635 80.6275L173.29 81.2404ZM172.297 80.7669L172.578 80.1224H172.578L172.297 80.7669ZM231.271 81.2404H231.974V80.8423L231.633 80.6374L231.271 81.2404ZM193.99 48.425L194.26 49.0744L194.927 48.7969L194.632 48.1375L193.99 48.425ZM180.403 70.227L179.709 70.3425L179.71 70.3519L180.403 70.227ZM219.929 66.2936H220.633L219.255 66.0945L219.929 66.2936ZM219.929 82.027H219.226V82.7304H219.929V82.027ZM231.271 82.027V82.7304H231.974V82.027H231.271ZM219.929 45.9526L219.731 46.6273L220.633 46.8928V45.9526H219.929ZM195.113 47.9754L194.453 48.2196L194.697 48.8795L195.357 48.6349L195.113 47.9754ZM189.161 71.8003L189.845 71.6358L189.845 71.6335L189.161 71.8003ZM202.749 81.2404L202.708 80.5382L202.707 80.5383L202.749 81.2404ZM219.929 46.964H220.633V46.488L220.191 46.3111L219.929 46.964ZM219.929 64.2708L220.607 64.4589L220.633 64.3666V64.2708H219.929ZM165.441 13.911L164.803 14.2072L164.814 14.2294L164.826 14.2508L165.441 13.911ZM165.441 13.9112L166.079 13.615L166.069 13.5928L166.057 13.5714L165.441 13.9112ZM164.101 11.7003L163.584 12.1773L163.603 12.198L163.624 12.2171L164.101 11.7003ZM162.237 10.7199L162.013 11.3867L162.237 10.7199ZM162.248 9.44632L162.013 8.78329V8.78329L162.248 9.44632ZM164.101 8.44689L163.603 7.94955L163.593 7.95949L163.584 7.96983L164.101 8.44689ZM165.418 6.20552L164.778 5.91288V5.91289L165.418 6.20552ZM166.479 5.7497L167.107 5.4321V5.4321L166.479 5.7497ZM168.167 8.44689L168.665 7.94956L168.665 7.94955L168.167 8.44689ZM170.4 9.66591L170.601 8.9918V8.9918L170.4 9.66591ZM170.105 10.6783L169.878 10.0127L170.105 10.6783ZM168.167 11.7003L168.665 12.1976L168.675 12.1876L168.684 12.1773L168.167 11.7003ZM166.934 13.7201L166.303 13.4086L166.298 13.4206L166.934 13.7201ZM166.934 13.7205L167.565 14.0319L167.57 14.02L166.934 13.7205ZM166.1 14.9916L166.029 15.6913L166.095 15.698L166.161 15.6923L166.1 14.9916ZM294.564 91.3757L293.926 91.6719V91.6719L294.564 91.3757ZM295.212 92.4377L295.14 93.1375L295.206 93.1441L295.272 93.1385L295.212 92.4377ZM293.246 89.2029L292.729 89.68L292.748 89.7007L292.769 89.7198L293.246 89.2029ZM291.415 88.2394L291.639 87.5727V87.5727L291.415 88.2394ZM291.425 86.9877L291.66 87.6507L291.66 87.6507L291.425 86.9877ZM293.246 86.0054L292.749 85.5081L292.739 85.518L292.729 85.5284L293.246 86.0054ZM294.541 83.8025L293.901 83.5099V83.5099L294.541 83.8025ZM295.584 83.3545L294.956 83.6721V83.6721L295.584 83.3545ZM297.243 86.0054L297.74 85.5081V85.5081L297.243 86.0054ZM299.438 87.2035L299.638 86.5294L299.438 87.2035ZM299.148 88.1986L299.375 88.8643L299.148 88.1986ZM297.243 89.2029L297.74 89.7003L297.75 89.6903L297.76 89.68L297.243 89.2029ZM296.031 91.1885L296.662 91.4999V91.4999L296.031 91.1885ZM282.078 161.564H282.781V161.166L282.44 160.961L282.078 161.564ZM279.65 82.7014H280.353V81.998H279.65V82.7014ZM278.878 82.7014V81.998H278.801L278.726 82.0146L278.878 82.7014ZM268.393 85.0209L268.241 84.3341L267.69 84.4561V85.0209H268.393ZM268.393 85.9045H267.69V86.5101L268.288 86.6L268.393 85.9045ZM270.931 110.204L270.733 110.879L271.635 111.144V110.204H270.931ZM227.337 141.131L226.634 141.148L226.634 141.153L227.337 141.131ZM270.931 132.736H271.635L270.237 132.623L270.931 132.736ZM270.931 162.337H270.228V163.041H270.931V162.337ZM282.078 162.337V163.041H282.781V162.337H282.078ZM235.946 142.787L235.244 142.826L235.244 142.828L235.946 142.787ZM252.721 161.012L252.85 161.703L252.857 161.702L252.721 161.012ZM264.309 109.762V109.059H264.302L264.295 109.059L264.309 109.762ZM270.488 110.642L270.672 109.964V109.964L270.488 110.642ZM270.931 110.756H271.635V110.18L271.069 110.067L270.931 110.756ZM130.195 161.564H130.899V161.166L130.557 160.961L130.195 161.564ZM130.195 162.337V163.041H130.899V162.337H130.195ZM119.048 162.337H118.345V163.041H119.048V162.337ZM119.048 146.874H119.752L118.374 146.675L119.048 146.874ZM80.2002 150.74L79.5064 150.855L79.508 150.865L80.2002 150.74ZM93.5543 129.312L93.8244 129.962L94.4916 129.684L94.1962 129.025L93.5543 129.312ZM94.658 128.87L93.9983 129.114L94.2426 129.774L94.9024 129.53L94.658 128.87ZM119.048 126.882L118.85 127.557L119.752 127.822V126.882H119.048ZM102.163 161.564L102.122 160.862L102.121 160.862L102.163 161.564ZM88.8086 152.286L89.4924 152.122L89.4919 152.119L88.8086 152.286ZM119.048 144.886L119.726 145.074L119.752 144.982V144.886H119.048ZM119.048 127.876H119.752V127.4L119.31 127.223L119.048 127.876ZM217.92 148.525L218.62 148.46L218.62 148.46L217.92 148.525ZM217.919 148.522L218.62 148.456L218.619 148.449L217.919 148.522ZM217.921 148.534L217.22 148.6L217.22 148.601L217.921 148.534ZM217.922 148.547L218.622 148.481L218.622 148.48L217.922 148.547ZM218.556 155.048L217.856 155.123L217.857 155.125L218.556 155.048ZM221.646 161.564H222.349V161.166L222.008 160.961L221.646 161.564ZM221.646 162.337V163.041H222.349V162.337H221.646ZM208.071 162.337H207.368V163.041H208.071V162.337ZM208.071 161.564L207.709 160.961L207.368 161.166V161.564H208.071ZM209.947 155.048L210.648 154.984L210.647 154.973L210.646 154.963L209.947 155.048ZM208.393 138.061L209.094 138V138L208.393 138.061ZM208.392 138.053L207.692 138.114V138.114L208.392 138.053ZM208.391 138.039L207.69 138.098L207.69 138.1L208.391 138.039ZM208.391 138.033L209.091 137.974L209.091 137.974L208.391 138.033ZM208.39 138.031L209.091 137.971L209.091 137.97L208.39 138.031ZM208.389 138.02L207.689 138.08L207.689 138.081L208.389 138.02ZM208.388 138.008L209.089 137.948L209.089 137.947L208.388 138.008ZM208.387 137.99L209.088 137.929L209.087 137.929L208.387 137.99ZM208.386 137.978L207.685 138.039L207.685 138.04L208.386 137.978ZM207.409 126.993L208.109 126.925L208.108 126.918L207.409 126.993ZM194.717 111.198L194.867 111.885L194.867 111.885L194.717 111.198ZM183.129 142.125L182.425 142.118V142.125H183.129ZM185.557 161.564H186.26V161.166L185.919 160.961L185.557 161.564ZM185.557 162.337V163.041H186.26V162.337H185.557ZM171.982 162.337H171.279V163.041H171.982V162.337ZM171.982 161.564L171.62 160.961L171.279 161.166V161.564H171.982ZM161.939 111.198L162.069 111.889L162.072 111.889L161.939 111.198ZM151.565 161.564H152.268V161.166L151.927 160.961L151.565 161.564ZM151.565 162.337V163.041H152.268V162.337H151.565ZM137.879 162.337H137.176V163.041H137.879V162.337ZM137.879 161.564L137.517 160.961L137.176 161.166V161.564H137.879ZM137.879 112.413H137.176V113.019L137.775 113.109L137.879 112.413ZM137.879 111.64L137.719 110.955L137.176 111.082V111.64H137.879ZM148.254 109.21V108.507H148.172L148.093 108.525L148.254 109.21ZM149.026 109.21H149.73V108.507H149.026V109.21ZM149.026 133.73H148.323L149.726 133.803L149.026 133.73ZM183.018 128.649L182.316 128.675L182.316 128.694L182.318 128.713L183.018 128.649ZM183.129 129.864L182.428 129.928L183.827 129.951L183.129 129.864ZM215.907 128.649L215.207 128.721L215.208 128.729L215.907 128.649ZM217.919 148.52L217.219 148.586L217.22 148.593L217.919 148.52ZM296.164 153.676L296.86 153.571L296.859 153.565L296.164 153.676ZM296.164 153.673L295.468 153.777L295.469 153.784L296.164 153.673ZM296.166 153.684L295.47 153.788L295.47 153.79L296.166 153.684ZM296.37 155.048L295.674 155.146L296.37 155.048ZM300.547 161.099L300.265 161.743L300.265 161.743L300.547 161.099ZM301.524 161.564H302.227V161.153L301.869 160.951L301.524 161.564ZM301.524 162.337V163.041H302.227V162.337H301.524ZM287.838 162.337H287.135V163.041H287.838V162.337ZM287.838 161.564L287.476 160.961L287.135 161.166V161.564H287.838ZM287.838 112.413H287.135V113.014L287.729 113.108L287.838 112.413ZM287.838 111.64L287.74 110.943L287.135 111.029V111.64H287.838ZM298.213 109.21L298.469 109.865V109.865L298.213 109.21ZM300.29 108.259L300.597 108.892L300.604 108.888L300.29 108.259ZM300.29 108.259L299.983 107.626L299.976 107.63L300.29 108.259ZM301.389 107.795L301.924 108.251L301.924 108.251L301.389 107.795ZM296.164 153.671L296.859 153.567L296.859 153.565L296.164 153.671ZM75.8512 159.783H76.5545V159.385L76.2131 159.18L75.8512 159.783ZM73.2559 154.315L72.5566 154.39L72.5569 154.392L73.2559 154.315ZM75.8512 160.432V161.136H76.5545V160.432H75.8512ZM64.4505 160.432H63.7471V161.136H64.4505V160.432ZM64.4505 159.783L64.0886 159.18L63.7471 159.385V159.783H64.4505ZM66.0262 154.315L66.7266 154.251L66.7257 154.241L66.7244 154.23L66.0262 154.315ZM64.7188 140.037L65.4194 139.976L64.7188 140.037ZM63.8943 130.772L64.5945 130.704L64.5937 130.697L63.8943 130.772ZM51.7521 117.517L51.8877 118.207L51.8885 118.207L51.7521 117.517ZM41.5564 159.783H42.2597V159.385L41.9182 159.18L41.5564 159.783ZM41.5564 160.432V161.136H42.2597V160.432H41.5564ZM30.063 160.432H29.3596V161.136H30.063V160.432ZM30.063 159.783L29.7181 159.17L29.3596 159.372V159.783H30.063ZM30.063 96.2916H29.3596V96.8973L29.9586 96.9872L30.063 96.2916ZM30.063 95.5501L29.9096 94.8637L29.3596 94.9865V95.5501H30.063ZM38.7757 93.6036V92.9003H38.6981L38.6224 92.9172L38.7757 93.6036ZM39.5172 93.6036H40.2206V92.9003H39.5172V93.6036ZM39.5172 138.836H38.8139L40.2165 138.911L39.5172 138.836ZM71.0314 132.162L70.3315 132.232L70.3325 132.241L71.0314 132.162ZM72.7215 148.839L73.4217 148.774L73.4217 148.773L72.7215 148.839ZM72.7217 148.842L72.0214 148.907L72.0215 148.908L72.7217 148.842ZM42.999 33.7603L43.6863 33.9097L43.7805 33.4761L43.4298 33.2043L42.999 33.7603ZM6.78498 40.7022L6.08691 40.6163L6.08686 40.6167L6.78498 40.7022ZM27.0672 59.9664L26.8577 60.6378L27.0672 59.9664ZM42.1891 71.8254L41.493 71.7245L41.4925 71.7282L42.1891 71.8254ZM4.00819 63.3794L4.64085 63.0721L4.44849 62.676H4.00819V63.3794ZM3.42969 63.3794V62.676H2.85871L2.74137 63.2348L3.42969 63.3794ZM1 74.9493L0.311673 74.8048L0.218997 75.2461L0.581352 75.5145L1 74.9493ZM45.7758 66.7347L46.4771 66.7879L46.4775 66.782L45.7758 66.7347ZM26.3067 49.9322L26.0775 50.5971L26.3067 49.9322ZM9.67747 36.537L8.9792 36.4519L8.97794 36.464L9.67747 36.537ZM40.1065 44.4046L39.4457 44.6456L39.6143 45.108H40.1065V44.4046ZM40.685 44.4046V45.108H41.2519L41.3723 44.554L40.685 44.4046ZM154.161 27.9715V28.8706H155.567V27.9715H154.161ZM139.368 28.6749H154.864V27.2682H139.368V28.6749ZM125.198 16.3968C125.608 18.9149 126.749 21.9745 128.997 24.4162C131.262 26.8772 134.621 28.6749 139.368 28.6749V27.2682C135.019 27.2682 132.033 25.6382 130.032 23.4635C128.012 21.2695 126.963 18.4852 126.587 16.171L125.198 16.3968ZM129.763 1.92992C127.589 2.89011 126.201 5.02729 125.482 7.59552C124.761 10.1736 124.68 13.2868 125.199 16.3994L126.586 16.1683C126.094 13.2124 126.182 10.3131 126.837 7.97453C127.494 5.62608 128.688 3.94229 130.332 3.21676L129.763 1.92992ZM148.22 16.7008C146.848 13.2123 144.305 8.65677 141.12 5.39705C137.959 2.16237 133.937 -0.00292337 129.752 1.9351L130.343 3.21158C133.681 1.66578 137.07 3.26526 140.114 6.38013C143.133 9.46996 145.587 13.8487 146.91 17.2155L148.22 16.7008ZM148.351 16.2548H147.565V17.6615H148.351V16.2548ZM149.339 5.05872L147.655 16.8588L149.047 17.0576L150.732 5.2575L149.339 5.05872ZM135.437 1.70334C140.175 1.70334 145.74 2.92121 149.623 5.72814L150.447 4.58808C146.246 1.55117 140.357 0.296659 135.437 0.296659V1.70334ZM118.848 14.5982C118.848 10.9795 120.304 7.78031 123.072 5.47371C125.85 3.15936 130 1.70334 135.437 1.70334V0.296659C129.758 0.296659 125.261 1.81875 122.172 4.39299C119.073 6.97498 117.441 10.5749 117.441 14.5982H118.848ZM134.237 27.2691C131.02 27.1081 127.138 25.7025 124.067 23.4177C120.991 21.1297 118.848 18.0555 118.848 14.5982H117.441C117.441 18.6703 119.958 22.1142 123.227 24.5463C126.5 26.9816 130.647 28.4978 134.167 28.674L134.237 27.2691ZM117.695 28.6749H134.202V27.2682H117.695V28.6749ZM118.399 28.8706V27.9715H116.992V28.8706H118.399ZM125.024 37.8611C125.024 34.7608 124.454 32.3346 123.214 30.67C121.945 28.9661 120.057 28.1673 117.695 28.1673V29.5739C119.713 29.5739 121.137 30.2361 122.086 31.5102C123.064 32.8237 123.617 34.8928 123.617 37.8611H125.024ZM125.024 74.6098V37.8611H123.617V74.6098H125.024ZM122.212 81.8433C123.181 81.2617 123.905 80.4686 124.372 79.2773C124.826 78.1176 125.024 76.6104 125.024 74.6098H123.617C123.617 76.5427 123.422 77.845 123.062 78.7644C122.714 79.6521 122.204 80.2076 121.488 80.6374L122.212 81.8433ZM122.553 82.027V81.2404H121.147V82.027H122.553ZM135.662 81.3237H121.85V82.7304H135.662V81.3237ZM134.959 81.2404V82.027H136.365V81.2404H134.959ZM132.488 74.6098C132.488 76.6104 132.686 78.1176 133.14 79.2773C133.607 80.4686 134.331 81.2617 135.3 81.8433L136.024 80.6374C135.308 80.2076 134.798 79.6521 134.45 78.7644C134.09 77.845 133.895 76.5427 133.895 74.6098H132.488ZM132.488 28.8706V74.6098H133.895V28.8706H132.488ZM154.864 28.1673H133.192V29.5739H154.864V28.1673ZM83.9752 27.2682C68.6147 27.2682 52.8406 38.7501 52.8406 57.7526H54.2473C54.2473 39.6693 69.2413 28.6749 83.9752 28.6749V27.2682ZM112.752 52.9202C112.752 36.9109 99.2881 27.2682 83.9752 27.2682V28.6749C98.7565 28.6749 111.345 37.9123 111.345 52.9202H112.752ZM81.617 83.4046C96.9869 83.4046 112.752 71.3523 112.752 52.9202H111.345C111.345 70.4502 96.3415 81.998 81.617 81.998V83.4046ZM52.8406 57.7526C52.8406 65.8299 56.1632 72.2644 61.4454 76.6673C66.7149 81.0596 73.9005 83.4046 81.617 83.4046V81.998C74.1741 81.998 67.3232 79.7353 62.3461 75.5867C57.3816 71.4487 54.2473 65.4088 54.2473 57.7526H52.8406ZM90.0624 80.0045C83.8963 81.845 78.2883 80.4447 73.7212 76.9454C69.1352 73.4317 65.585 67.7854 63.6518 61.152L62.3013 61.5456C64.2983 68.398 67.9909 74.327 72.8656 78.062C77.759 81.8113 83.8295 83.3329 90.4647 81.3524L90.0624 80.0045ZM101.94 49.5193C103.875 56.2133 103.97 62.9714 102.05 68.4782C100.137 73.9622 96.2265 78.2187 90.0678 80.0029L90.4593 81.354C97.1019 79.4296 101.332 74.808 103.378 68.9414C105.416 63.0977 105.287 56.0329 103.291 49.1287L101.94 49.5193ZM75.5244 30.67C81.6937 28.8827 87.3044 30.2843 91.8721 33.7704C96.4578 37.2703 100.008 42.8884 101.94 49.5208L103.291 49.1272C101.294 42.2739 97.6005 36.3728 92.7256 32.6522C87.8327 28.9179 81.765 27.3975 75.133 29.3188L75.5244 30.67ZM63.6522 61.1535C61.7175 54.4595 61.622 47.7014 63.5424 42.1946C65.4548 36.7107 69.3657 32.4542 75.5244 30.67L75.133 29.3188C68.4904 31.2432 64.26 35.8648 62.2142 41.7314C60.1763 47.5752 60.3054 54.64 62.3008 61.5441L63.6522 61.1535ZM167.142 73.3158C167.228 73.8806 167.3 74.3465 167.35 74.7081L168.743 74.5116C168.691 74.1399 168.618 73.6644 168.532 73.1028L167.142 73.3158ZM172.618 26.0754C167.166 32.4716 165.534 42.3724 165.373 51.5287C165.211 60.721 166.533 69.3432 167.142 73.3158L168.532 73.1028C167.924 69.1328 166.62 60.6149 166.779 51.5534C166.939 42.4558 168.573 32.9892 173.689 26.9879L172.618 26.0754ZM172.342 27.6369C172.699 27.4637 172.99 27.3223 173.181 27.2381C173.289 27.1901 173.318 27.1822 173.301 27.1865C173.295 27.1882 173.258 27.1981 173.205 27.2024C173.178 27.2046 173.127 27.2071 173.063 27.1985C173.005 27.1906 172.887 27.1672 172.764 27.0823C172.621 26.9836 172.511 26.8278 172.475 26.6385C172.444 26.4741 172.48 26.3427 172.503 26.2778C172.546 26.1572 172.611 26.0832 172.618 26.0753L173.688 26.988C173.708 26.965 173.782 26.879 173.828 26.7491C173.853 26.6794 173.889 26.5441 173.857 26.3763C173.821 26.1838 173.709 26.0253 173.563 25.9247C173.437 25.8378 173.315 25.813 173.252 25.8044C173.183 25.7952 173.126 25.7976 173.092 25.8004C173.024 25.8058 172.968 25.8195 172.94 25.8271C172.833 25.8555 172.708 25.9092 172.611 25.9518C172.393 26.0486 172.074 26.2036 171.728 26.3715L172.342 27.6369ZM172.333 27.6412L172.334 27.6411L171.737 26.3674L171.736 26.3675L172.333 27.6412ZM170.178 28.6266C170.834 28.37 171.688 27.9546 172.342 27.6371L171.728 26.3717C171.056 26.6976 170.258 27.0847 169.666 27.3165L170.178 28.6266ZM159.366 30.4439C159.464 31.1404 159.464 31.1404 159.464 31.1404C159.464 31.1404 159.465 31.1404 159.465 31.1403C159.465 31.1403 159.465 31.1403 159.466 31.1402C159.467 31.1401 159.468 31.1399 159.47 31.1396C159.473 31.1391 159.478 31.1384 159.485 31.1375C159.498 31.1356 159.518 31.1328 159.543 31.1291C159.593 31.1218 159.668 31.1108 159.763 31.0964C159.954 31.0676 160.231 31.0248 160.574 30.9686C161.262 30.8563 162.22 30.6904 163.302 30.4758C165.455 30.049 168.145 29.4214 170.178 28.6266L169.666 27.3165C167.755 28.0635 165.167 28.6721 163.029 29.096C161.965 29.3068 161.023 29.4699 160.348 29.5803C160.01 29.6355 159.739 29.6774 159.553 29.7055C159.46 29.7195 159.388 29.7301 159.34 29.7371C159.316 29.7406 159.298 29.7432 159.286 29.745C159.28 29.7458 159.275 29.7465 159.272 29.7469C159.271 29.7471 159.27 29.7473 159.269 29.7473C159.269 29.7474 159.268 29.7474 159.268 29.7474C159.268 29.7475 159.268 29.7475 159.268 29.7475C159.268 29.7475 159.268 29.7475 159.366 30.4439ZM160.07 31.2306V30.4439H158.663V31.2306H160.07ZM162.54 36.6249C162.54 34.6897 162.466 33.2726 162.048 32.301C161.823 31.7805 161.496 31.3701 161.034 31.0718C160.587 30.7833 160.059 30.628 159.476 30.5359L159.256 31.9253C159.74 32.0018 160.054 32.1134 160.271 32.2534C160.472 32.3835 160.629 32.5631 160.756 32.8574C161.039 33.5153 161.133 34.6268 161.133 36.6249H162.54ZM162.54 74.6098V36.6249H161.133V74.6098H162.54ZM159.728 81.8433C160.697 81.2617 161.422 80.4686 161.888 79.2773C162.342 78.1176 162.54 76.6104 162.54 74.6098H161.133C161.133 76.5427 160.938 77.845 160.578 78.7644C160.231 79.6521 159.72 80.2076 159.004 80.6374L159.728 81.8433ZM160.07 82.027V81.2404H158.663V82.027H160.07ZM173.29 81.3237H159.366V82.7304H173.29V81.3237ZM172.587 81.2404V82.027H173.994V81.2404H172.587ZM172.015 81.4114C172.369 81.5662 172.672 81.6991 172.945 81.8533L173.635 80.6275C173.289 80.4324 172.92 80.2716 172.578 80.1224L172.015 81.4114ZM167.351 74.7081C167.686 77.0875 168.37 78.5893 169.262 79.5992C170.15 80.6042 171.187 81.0494 172.015 81.4114L172.578 80.1224C171.74 79.7559 170.975 79.4137 170.316 78.6679C169.662 77.927 169.054 76.7145 168.743 74.5116L167.351 74.7081ZM228.097 74.6098C228.097 76.6104 228.295 78.1176 228.749 79.2773C229.216 80.4686 229.94 81.2617 230.909 81.8433L231.633 80.6374C230.917 80.2076 230.407 79.6521 230.059 78.7644C229.699 77.845 229.504 76.5427 229.504 74.6098H228.097ZM228.097 46.7393V74.6098H229.504V46.7393H228.097ZM209.599 28.6749C214.147 28.6749 218.774 29.8829 222.25 32.7169C225.703 35.5318 228.097 40.0131 228.097 46.7393H229.504C229.504 39.6424 226.958 34.7399 223.139 31.6267C219.344 28.5326 214.371 27.2682 209.599 27.2682V28.6749ZM194.632 48.1375C193.273 45.1038 193.38 40.2237 195.672 36.0953C197.933 32.0209 202.33 28.6749 209.599 28.6749V27.2682C201.82 27.2682 196.952 30.8899 194.442 35.4126C191.961 39.8814 191.787 45.228 193.348 48.7125L194.632 48.1375ZM181.096 70.1114C180.171 64.5536 181.37 60.1931 183.81 56.7854C186.264 53.3584 190.011 50.8414 194.26 49.0744L193.72 47.7756C189.322 49.6047 185.322 52.2573 182.666 55.9665C179.997 59.695 178.725 64.4374 179.709 70.3425L181.096 70.1114ZM200.054 81.998C195.553 81.998 191.133 80.9253 187.679 78.8923C184.233 76.8632 181.78 73.9009 181.095 70.1021L179.71 70.3519C180.485 74.6445 183.254 77.9194 186.966 80.1046C190.671 82.2859 195.347 83.4046 200.054 83.4046V81.998ZM219.255 66.0945C217.82 70.956 215.602 74.926 212.475 77.6781C209.359 80.4196 205.291 81.998 200.054 81.998V83.4046C205.597 83.4046 210.006 81.724 213.404 78.7341C216.79 75.7547 219.12 71.5208 220.604 66.4928L219.255 66.0945ZM220.633 82.027V66.2936H219.226V82.027H220.633ZM231.271 81.3237H219.929V82.7304H231.271V81.3237ZM230.568 81.2404V82.027H231.974V81.2404H230.568ZM220.633 45.1659C220.633 40.8189 219.778 36.6563 217.845 33.5557C215.891 30.42 212.84 28.392 208.588 28.392V29.7987C212.308 29.7987 214.929 31.5355 216.652 34.2998C218.397 37.0993 219.226 40.9719 219.226 45.1659H220.633ZM220.633 45.9526V45.1659H219.226V45.9526H220.633ZM213.192 45.6445C215.691 45.6445 217.869 46.0792 219.731 46.6273L220.128 45.2779C218.172 44.7021 215.858 44.2378 213.192 44.2378V45.6445ZM195.357 48.6349C201.322 46.4239 207.972 45.6445 213.192 45.6445V44.2378C207.856 44.2378 201.031 45.0317 194.868 47.316L195.357 48.6349ZM208.588 28.392C198.002 28.392 190.911 38.6479 194.453 48.2196L195.773 47.7313C192.577 39.0972 198.961 29.7987 208.588 29.7987V28.392ZM188.478 71.9648C190.033 78.4315 196.909 82.2956 202.791 81.9424L202.707 80.5383C197.359 80.8594 191.209 77.3063 189.845 71.6358L188.478 71.9648ZM213.192 45.2492C206.985 45.2492 199.593 46.783 194.342 50.9061C191.704 52.9767 189.606 55.7027 188.488 59.2033C187.371 62.7008 187.247 66.9234 188.478 71.9671L189.845 71.6335C188.662 66.7877 188.805 62.8345 189.828 59.6313C190.85 56.4311 192.766 53.9314 195.21 52.0125C200.122 48.1564 207.159 46.6559 213.192 46.6559V45.2492ZM220.191 46.3111C219.544 46.0523 216.761 45.2492 213.192 45.2492V46.6559C216.585 46.6559 219.192 47.4262 219.668 47.617L220.191 46.3111ZM220.633 64.2708V46.964H219.226V64.2708H220.633ZM202.789 81.9425C213.029 81.3536 218.339 72.6324 220.607 64.4589L219.252 64.0826C217.029 72.0921 212.007 80.0033 202.708 80.5382L202.789 81.9425ZM164.826 14.2508L164.826 14.2509L166.057 13.5714L166.057 13.5712L164.826 14.2508ZM163.624 12.2171C163.818 12.3965 164.023 12.6861 164.234 13.06C164.441 13.4274 164.627 13.828 164.803 14.2072L166.079 13.6148C165.907 13.2438 165.698 12.7928 165.459 12.3693C165.224 11.9524 164.933 11.5118 164.578 11.1834L163.624 12.2171ZM162.013 11.3867C162.682 11.6113 163.255 11.8211 163.584 12.1773L164.617 11.2232C163.998 10.5525 163.042 10.2484 162.461 10.0532L162.013 11.3867ZM160.501 10.0953C160.501 10.6764 160.983 10.9603 161.179 11.0626C161.426 11.1914 161.745 11.2967 162.013 11.3867L162.461 10.0532C162.314 10.004 162.189 9.96172 162.077 9.92031C161.965 9.87853 161.885 9.84441 161.83 9.81571C161.77 9.78424 161.776 9.77777 161.803 9.80709C161.841 9.84855 161.907 9.94957 161.907 10.0953H160.501ZM162.013 8.78329C161.742 8.87924 161.421 8.99081 161.174 9.12414C160.979 9.22921 160.501 9.5176 160.501 10.0953H161.907C161.907 10.2408 161.841 10.3396 161.807 10.3774C161.782 10.404 161.78 10.3957 161.842 10.3622C161.899 10.3315 161.981 10.2951 162.095 10.2507C162.208 10.2067 162.335 10.1617 162.483 10.1093L162.013 8.78329ZM163.584 7.96983C163.253 8.32821 162.678 8.54786 162.013 8.78329L162.483 10.1094C163.063 9.90393 164.006 9.58646 164.617 8.92395L163.584 7.96983ZM164.778 5.91289C164.604 6.29325 164.42 6.69577 164.215 7.06853C164.008 7.44671 163.802 7.75057 163.603 7.94955L164.598 8.94423C164.937 8.60535 165.218 8.16517 165.448 7.74546C165.682 7.32032 165.887 6.87108 166.058 6.49815L164.778 5.91289ZM166.1 4.38173C165.732 4.38173 165.504 4.62851 165.436 4.70576C165.337 4.81765 165.255 4.94993 165.19 5.06451C165.059 5.2976 164.917 5.60917 164.778 5.91288L166.058 6.49815C166.206 6.17303 166.321 5.92438 166.416 5.75447C166.465 5.66754 166.489 5.6376 166.489 5.63767C166.489 5.63852 166.464 5.6676 166.413 5.70008C166.361 5.73315 166.253 5.78842 166.1 5.78842V4.38173ZM167.107 5.4321C167.009 5.23947 166.918 5.05991 166.846 4.92956C166.812 4.86678 166.77 4.7944 166.727 4.73172C166.707 4.70286 166.669 4.65099 166.617 4.59907C166.591 4.57316 166.544 4.52957 166.477 4.48868C166.417 4.45154 166.284 4.38173 166.1 4.38173V5.78842C165.922 5.78842 165.795 5.72071 165.742 5.68771C165.682 5.65097 165.642 5.61355 165.624 5.59578C165.604 5.57557 165.59 5.55908 165.584 5.55105C165.577 5.54229 165.573 5.53642 165.572 5.53499C165.57 5.53268 165.573 5.5371 165.582 5.55176C165.59 5.56558 165.601 5.58432 165.615 5.60886C165.672 5.71205 165.749 5.86479 165.852 6.06731L167.107 5.4321ZM168.665 7.94955C168.403 7.68745 168.115 7.27068 167.832 6.78824C167.554 6.31477 167.304 5.82305 167.107 5.4321L165.852 6.06731C166.047 6.45425 166.315 6.98391 166.619 7.50095C166.918 8.00902 167.278 8.5519 167.67 8.94423L168.665 7.94955ZM170.601 8.9918C170.027 8.82095 169.32 8.60465 168.665 7.94956L167.67 8.94422C168.594 9.86777 169.604 10.1626 170.2 10.34L170.601 8.9918ZM171.814 10.0953C171.814 9.58904 171.447 9.32934 171.239 9.222C171.042 9.12013 170.789 9.04764 170.601 8.9918L170.2 10.34C170.31 10.3729 170.395 10.3983 170.467 10.4227C170.541 10.4475 170.578 10.4635 170.593 10.4714C170.611 10.4809 170.567 10.4624 170.515 10.3993C170.487 10.3646 170.458 10.3183 170.437 10.2606C170.416 10.2025 170.407 10.1456 170.407 10.0953H171.814ZM170.332 11.344C170.596 11.2542 170.902 11.1514 171.137 11.0321C171.256 10.9719 171.406 10.8839 171.534 10.7546C171.67 10.6166 171.814 10.3945 171.814 10.0953H170.407C170.407 9.91611 170.496 9.80295 170.532 9.76683C170.559 9.73931 170.563 9.746 170.501 9.77751C170.445 9.80583 170.366 9.8395 170.255 9.88075C170.145 9.92162 170.021 9.96382 169.878 10.0127L170.332 11.344ZM168.684 12.1773C169.026 11.8068 169.641 11.5799 170.332 11.344L169.878 10.0127C169.279 10.2171 168.281 10.54 167.651 11.2232L168.684 12.1773ZM167.565 14.0315C167.743 13.6705 167.925 13.3025 168.118 12.9679C168.314 12.6277 168.497 12.3648 168.665 12.1976L167.67 11.2029C167.372 11.5013 167.115 11.891 166.899 12.2656C166.68 12.6459 166.478 13.055 166.304 13.4087L167.565 14.0315ZM167.57 14.02L167.571 14.0196L166.298 13.4206L166.298 13.421L167.57 14.02ZM166.161 15.6923C166.489 15.664 166.702 15.4537 166.789 15.3598C166.899 15.2413 166.994 15.0997 167.073 14.9698C167.232 14.708 167.401 14.3634 167.565 14.0319L166.303 13.4091C166.13 13.761 165.99 14.0427 165.87 14.2409C165.809 14.341 165.772 14.3879 165.759 14.4026C165.753 14.409 165.767 14.3917 165.803 14.3687C165.838 14.3457 165.92 14.3012 166.04 14.2908L166.161 15.6923ZM164.804 14.2073C164.937 14.4951 165.074 14.791 165.201 15.0148C165.263 15.1254 165.341 15.2511 165.434 15.3588C165.5 15.4356 165.7 15.6578 166.029 15.6913L166.172 14.2918C166.307 14.3056 166.398 14.3598 166.439 14.3882C166.461 14.4037 166.476 14.4172 166.485 14.4253C166.494 14.4336 166.498 14.4391 166.499 14.4401C166.5 14.4412 166.493 14.4331 166.479 14.4109C166.464 14.3894 166.446 14.3603 166.425 14.322C166.332 14.1588 166.222 13.9229 166.079 13.615L164.804 14.2073ZM293.926 91.6719C294.057 91.9546 294.192 92.2459 294.317 92.4665C294.378 92.5754 294.455 92.6998 294.547 92.8065C294.613 92.8823 294.812 93.1041 295.14 93.1375L295.283 91.738C295.418 91.7518 295.51 91.8062 295.551 91.8348C295.573 91.8504 295.589 91.8641 295.598 91.8724C295.607 91.8809 295.612 91.8866 295.613 91.8878C295.614 91.8894 295.608 91.8819 295.593 91.8603C295.579 91.8395 295.562 91.8111 295.541 91.7737C295.45 91.6137 295.342 91.3823 295.202 91.0796L293.926 91.6719ZM292.769 89.7198C292.959 89.8948 293.16 90.1782 293.367 90.5453C293.57 90.9059 293.753 91.2991 293.926 91.6719L295.202 91.0796C295.033 90.7149 294.827 90.2713 294.592 89.8546C294.361 89.4445 294.074 89.0101 293.723 88.6861L292.769 89.7198ZM291.191 88.9062C291.848 89.1272 292.409 89.3326 292.729 89.68L293.763 88.7259C293.152 88.064 292.209 87.7643 291.639 87.5727L291.191 88.9062ZM289.696 87.6255C289.696 88.2042 290.176 88.4863 290.369 88.5869C290.612 88.714 290.928 88.8178 291.191 88.9062L291.639 87.5727C291.494 87.5243 291.371 87.4828 291.262 87.4422C291.151 87.4012 291.074 87.3679 291.02 87.34C290.962 87.3094 290.969 87.3038 290.996 87.3341C291.035 87.3765 291.103 87.4786 291.103 87.6255H289.696ZM291.191 86.3247C290.925 86.4188 290.608 86.5288 290.364 86.6604C290.173 86.7637 289.696 87.0502 289.696 87.6255H291.103C291.103 87.7722 291.035 87.8721 291 87.9109C290.975 87.9385 290.971 87.9311 291.032 87.8985C291.087 87.8686 291.167 87.8331 291.279 87.7896C291.39 87.7464 291.515 87.7021 291.66 87.6507L291.191 86.3247ZM292.729 85.5284C292.407 85.878 291.845 86.093 291.191 86.3247L291.66 87.6507C292.23 87.4491 293.16 87.1362 293.763 86.4825L292.729 85.5284ZM293.901 83.5099C293.73 83.8838 293.549 84.279 293.348 84.6449C293.144 85.0162 292.943 85.3137 292.749 85.5081L293.743 86.5028C294.078 86.1685 294.355 85.7347 294.581 85.3218C294.811 84.9035 295.013 84.4616 295.18 84.0951L293.901 83.5099ZM295.212 81.998C294.843 81.998 294.617 82.2442 294.549 82.3205C294.451 82.4314 294.37 82.5623 294.307 82.6752C294.177 82.9048 294.038 83.2116 293.901 83.5099L295.18 84.0951C295.327 83.7754 295.439 83.5316 295.533 83.3651C295.581 83.28 295.604 83.2514 295.603 83.2524C295.602 83.2538 295.576 83.2832 295.525 83.3159C295.473 83.3493 295.364 83.4047 295.212 83.4047V81.998ZM296.211 83.0369C296.116 82.8477 296.026 82.671 295.955 82.5427C295.921 82.4809 295.88 82.4093 295.837 82.3472C295.817 82.3186 295.78 82.2669 295.728 82.2151C295.702 82.1893 295.655 82.1457 295.588 82.1049C295.528 82.0678 295.395 81.998 295.212 81.998V83.4047C295.033 83.4047 294.906 83.3369 294.853 83.3039C294.793 83.2671 294.753 83.2296 294.735 83.2118C294.715 83.1915 294.701 83.1749 294.695 83.1668C294.687 83.1579 294.683 83.1519 294.682 83.1504C294.682 83.15 294.694 83.1689 294.724 83.2219C294.779 83.3231 294.855 83.473 294.956 83.6721L296.211 83.0369ZM297.74 85.5081C297.484 85.2516 297.202 84.843 296.924 84.3691C296.65 83.9041 296.406 83.4212 296.211 83.0369L294.956 83.6721C295.149 84.0524 295.412 84.5733 295.711 85.0818C296.004 85.5814 296.359 86.116 296.746 86.5028L297.74 85.5081ZM299.638 86.5294C299.074 86.3615 298.382 86.1496 297.74 85.5081L296.746 86.5027C297.656 87.4127 298.651 87.7032 299.237 87.8776L299.638 86.5294ZM300.839 87.6255C300.839 87.1211 300.473 86.8627 300.268 86.7565C300.073 86.6557 299.822 86.5841 299.638 86.5294L299.237 87.8776C299.346 87.9099 299.429 87.9348 299.5 87.9587C299.572 87.9831 299.607 87.9985 299.621 88.0059C299.639 88.0148 299.593 87.9957 299.541 87.9319C299.513 87.8969 299.483 87.8502 299.462 87.7921C299.441 87.7336 299.432 87.6763 299.432 87.6255H300.839ZM299.375 88.8643C299.633 88.776 299.935 88.6747 300.168 88.557C300.285 88.4976 300.433 88.4104 300.56 88.2819C300.695 88.1449 300.839 87.9237 300.839 87.6255H299.432C299.432 87.4453 299.522 87.3312 299.558 87.2942C299.586 87.2658 299.592 87.2717 299.531 87.3024C299.477 87.33 299.399 87.3629 299.29 87.4033C299.183 87.4434 299.061 87.4849 298.921 87.5329L299.375 88.8643ZM297.76 89.68C298.094 89.3185 298.694 89.0964 299.375 88.8643L298.921 87.5329C298.332 87.7336 297.349 88.0517 296.726 88.7259L297.76 89.68ZM296.662 91.4999C296.837 91.1449 297.016 90.7835 297.205 90.455C297.397 90.1209 297.577 89.8635 297.74 89.7003L296.746 88.7056C296.451 89.0001 296.198 89.3842 295.986 89.7527C295.77 90.127 295.572 90.5295 295.4 90.8771L296.662 91.4999ZM295.272 93.1385C295.599 93.1103 295.811 92.9006 295.898 92.8079C296.007 92.6905 296.1 92.5505 296.178 92.4226C296.334 92.1647 296.501 91.8255 296.662 91.4999L295.4 90.8771C295.229 91.2231 295.092 91.4994 294.975 91.6937C294.915 91.7918 294.879 91.8371 294.867 91.8507C294.861 91.8565 294.876 91.8387 294.913 91.8154C294.949 91.7921 295.031 91.7474 295.151 91.737L295.272 93.1385ZM278.947 155.048C278.947 157.014 279.141 158.497 279.588 159.639C280.048 160.813 280.762 161.594 281.716 162.167L282.44 160.961C281.739 160.54 281.239 159.996 280.898 159.126C280.545 158.225 280.353 156.947 280.353 155.048H278.947ZM278.947 82.7014V155.048H280.353V82.7014H278.947ZM278.878 83.4047H279.65V81.998H278.878V83.4047ZM268.545 85.7076L279.029 83.3881L278.726 82.0146L268.241 84.3341L268.545 85.7076ZM269.096 85.9045V85.0209H267.69V85.9045H269.096ZM271.635 91.2062C271.635 90.2346 271.614 89.4119 271.545 88.7232C271.476 88.0381 271.355 87.4419 271.132 86.9424C270.9 86.4248 270.562 86.0213 270.09 85.7304C269.635 85.4497 269.095 85.2987 268.497 85.2089L268.288 86.6C268.794 86.6759 269.124 86.7872 269.352 86.9277C269.563 87.0579 269.721 87.2342 269.848 87.5174C269.983 87.8187 270.083 88.2442 270.145 88.8638C270.207 89.4798 270.228 90.2449 270.228 91.2062H271.635ZM271.635 110.204V91.2062H270.228V110.204H271.635ZM264.309 109.913C266.765 109.913 268.904 110.34 270.733 110.879L271.13 109.529C269.207 108.963 266.931 108.507 264.309 108.507V109.913ZM228.041 141.113C227.716 127.747 233.746 119.997 241.337 115.546C248.98 111.065 258.247 109.913 264.309 109.913V108.507C258.121 108.507 248.571 109.674 240.626 114.333C232.627 119.022 226.297 127.232 226.634 141.148L228.041 141.113ZM247.755 162.297C239.176 162.297 228.469 154.848 228.04 141.109L226.634 141.153C227.088 155.689 238.455 163.703 247.755 163.703V162.297ZM270.237 132.623C269.194 138.997 267.281 146.459 263.749 152.309C260.229 158.139 255.156 162.297 247.755 162.297V163.703C255.805 163.703 261.271 159.135 264.953 153.036C268.622 146.958 270.572 139.288 271.625 132.85L270.237 132.623ZM271.635 162.337V132.736H270.228V162.337H271.635ZM282.078 161.634H270.931V163.041H282.078V161.634ZM281.375 161.564V162.337H282.781V161.564H281.375ZM235.244 142.828C235.527 147.766 237.395 152.91 240.438 156.612C243.489 160.326 247.784 162.647 252.85 161.703L252.592 160.32C248.167 161.144 244.35 159.157 241.525 155.719C238.69 152.27 236.916 147.419 236.648 142.747L235.244 142.828ZM264.295 109.059C258.872 109.171 251.216 110.4 245.097 115.244C238.937 120.122 234.461 128.564 235.244 142.826L236.648 142.749C235.886 128.845 240.239 120.885 245.97 116.347C251.744 111.776 259.041 110.574 264.324 110.465L264.295 109.059ZM270.672 109.964C269.665 109.69 267.342 109.059 264.309 109.059V110.465C267.15 110.465 269.327 111.056 270.304 111.321L270.672 109.964ZM271.069 110.067C271.006 110.054 270.886 110.022 270.672 109.964L270.304 111.321C270.492 111.372 270.671 111.421 270.793 111.446L271.069 110.067ZM271.635 126.22V110.756H270.228V126.22H271.635ZM252.857 161.702C256.15 161.055 258.963 159.04 261.314 156.315C263.665 153.589 265.59 150.113 267.111 146.454C270.15 139.144 271.635 130.962 271.635 126.22H270.228C270.228 130.755 268.788 138.754 265.812 145.914C264.326 149.489 262.471 152.82 260.249 155.396C258.027 157.972 255.472 159.754 252.586 160.322L252.857 161.702ZM130.557 160.961C129.856 160.54 129.356 159.996 129.015 159.126C128.662 158.225 128.471 156.947 128.471 155.048H127.064C127.064 157.014 127.258 158.497 127.706 159.639C128.165 160.813 128.879 161.594 129.833 162.167L130.557 160.961ZM130.899 162.337V161.564H129.492V162.337H130.899ZM119.048 163.041H130.195V161.634H119.048V163.041ZM118.345 146.874V162.337H119.752V146.874H118.345ZM99.514 163.703C104.965 163.703 109.301 162.051 112.643 159.11C115.973 156.18 118.264 152.016 119.723 147.073L118.374 146.675C116.964 151.452 114.785 155.351 111.714 158.054C108.654 160.746 104.658 162.297 99.514 162.297V163.703ZM79.508 150.865C80.27 155.088 82.9942 158.309 86.6446 160.458C90.2884 162.603 94.886 163.703 99.514 163.703V162.297C95.0921 162.297 90.7501 161.243 87.3582 159.246C83.9729 157.253 81.5652 154.344 80.8924 150.615L79.508 150.865ZM93.2842 128.663C88.9605 130.461 85.0268 133.069 82.415 136.717C79.7894 140.384 78.5394 145.049 79.5064 150.855L80.894 150.624C79.9848 145.165 81.1628 140.883 83.5588 137.536C85.9686 134.17 89.65 131.698 93.8244 129.962L93.2842 128.663ZM108.895 108.507C101.246 108.507 96.4575 112.068 93.9878 116.517C91.5481 120.912 91.3767 126.171 92.9124 129.6L94.1962 129.025C92.8624 126.047 92.967 121.255 95.2177 117.2C97.4385 113.199 101.755 109.913 108.895 109.913V108.507ZM128.471 127.655C128.471 120.677 125.967 115.855 122.211 112.793C118.478 109.75 113.587 108.507 108.895 108.507V109.913C113.363 109.913 117.908 111.1 121.322 113.883C124.712 116.647 127.064 121.048 127.064 127.655H128.471ZM128.471 155.048V127.655H127.064V155.048H128.471ZM107.902 111.018C111.554 111.018 114.125 112.722 115.817 115.436C117.53 118.185 118.345 121.988 118.345 126.109H119.752C119.752 121.835 118.911 117.742 117.01 114.692C115.087 111.607 112.085 109.611 107.902 109.611V111.018ZM95.3176 128.626C92.1801 120.148 98.4486 111.018 107.902 111.018V109.611C97.4891 109.611 90.5139 119.699 93.9983 129.114L95.3176 128.626ZM112.427 125.185C107.181 125.185 100.472 125.965 94.4135 128.211L94.9024 129.53C100.763 127.357 107.298 126.591 112.427 126.591V125.185ZM119.247 126.208C117.324 125.641 115.048 125.185 112.427 125.185V126.591C114.882 126.591 117.021 127.019 118.85 127.557L119.247 126.208ZM118.345 126.109V126.882H119.752V126.109H118.345ZM102.121 160.862C96.8693 161.177 90.8314 157.688 89.4924 152.122L88.1248 152.451C89.6553 158.813 96.4197 162.614 102.205 162.266L102.121 160.862ZM118.371 144.698C116.186 152.568 111.253 160.337 102.122 160.862L102.203 162.266C112.276 161.687 117.496 153.109 119.726 145.074L118.371 144.698ZM118.345 127.876V144.886H119.752V127.876H118.345ZM112.427 127.586C115.76 127.586 118.32 128.342 118.787 128.529L119.31 127.223C118.673 126.968 115.935 126.179 112.427 126.179V127.586ZM89.4919 152.119C88.3296 147.359 88.4702 143.476 89.4751 140.33C90.4791 137.187 92.3608 134.732 94.7612 132.848C99.5851 129.06 106.498 127.586 112.427 127.586V126.179C106.325 126.179 99.0565 127.687 93.8925 131.741C91.2988 133.778 89.2351 136.459 88.1352 139.902C87.0363 143.342 86.9148 147.494 88.1253 152.453L89.4919 152.119ZM218.62 148.46L218.62 148.456L217.219 148.588L217.219 148.591L218.62 148.46ZM218.621 148.469L218.62 148.46L217.219 148.591L217.22 148.6L218.621 148.469ZM218.622 148.48L218.621 148.468L217.22 148.601L217.221 148.613L218.622 148.48ZM219.255 154.972C219.105 153.579 218.889 151.306 218.622 148.481L217.221 148.613C217.488 151.433 217.705 153.718 217.856 155.123L219.255 154.972ZM222.008 160.961C221.281 160.524 220.717 159.983 220.273 159.106C219.817 158.206 219.471 156.92 219.255 154.97L217.857 155.125C218.082 157.151 218.453 158.627 219.018 159.742C219.595 160.881 220.356 161.61 221.284 162.167L222.008 160.961ZM222.349 162.337V161.564H220.943V162.337H222.349ZM208.071 163.041H221.646V161.634H208.071V163.041ZM207.368 161.564V162.337H208.775V161.564H207.368ZM209.247 155.111C209.41 156.902 209.346 158.18 209.079 159.104C208.821 159.996 208.374 160.562 207.709 160.961L208.433 162.167C209.424 161.572 210.081 160.703 210.43 159.495C210.769 158.321 210.816 156.838 210.648 154.984L209.247 155.111ZM207.692 138.122C208.304 145.142 208.979 152.905 209.249 155.132L210.646 154.963C210.38 152.766 209.707 145.041 209.094 138L207.692 138.122ZM207.692 138.114L207.692 138.122L209.094 138L209.093 137.992L207.692 138.114ZM207.69 138.1L207.692 138.114L209.093 137.992L209.092 137.978L207.69 138.1ZM207.69 138.092L207.69 138.098L209.092 137.98L209.091 137.974L207.69 138.092ZM207.69 138.09L207.69 138.093L209.091 137.974L209.091 137.971L207.69 138.09ZM207.689 138.081L207.69 138.091L209.091 137.97L209.09 137.959L207.689 138.081ZM207.688 138.068L207.689 138.08L209.09 137.96L209.089 137.948L207.688 138.068ZM207.686 138.051L207.688 138.069L209.089 137.947L209.088 137.929L207.686 138.051ZM207.685 138.04L207.686 138.052L209.087 137.929L209.086 137.916L207.685 138.04ZM206.709 127.06C206.924 129.3 207.291 133.514 207.685 138.039L209.086 137.917C208.693 133.395 208.325 129.174 208.109 126.925L206.709 127.06ZM194.867 111.885C196.883 111.446 198.533 111.673 199.899 112.341C201.275 113.014 202.42 114.163 203.365 115.66C205.266 118.672 206.272 122.962 206.71 127.067L208.108 126.918C207.663 122.739 206.627 118.193 204.555 114.909C203.513 113.259 202.19 111.895 200.517 111.077C198.834 110.254 196.856 110.012 194.567 110.511L194.867 111.885ZM183.832 142.131C183.887 136.342 184.246 129.238 185.836 123.323C187.437 117.364 190.204 112.9 194.867 111.885L194.568 110.511C189.076 111.705 186.104 116.905 184.478 122.958C182.839 129.055 182.481 136.31 182.425 142.118L183.832 142.131ZM183.832 155.048V142.125H182.425V155.048H183.832ZM185.919 160.961C185.218 160.54 184.718 159.996 184.377 159.126C184.024 158.225 183.832 156.947 183.832 155.048H182.425C182.425 157.014 182.62 158.497 183.067 159.639C183.527 160.813 184.24 161.594 185.195 162.167L185.919 160.961ZM186.26 162.337V161.564H184.853V162.337H186.26ZM171.982 163.041H185.557V161.634H171.982V163.041ZM171.279 161.564V162.337H172.685V161.564H171.279ZM173.707 155.048C173.707 156.947 173.515 158.225 173.162 159.126C172.821 159.996 172.321 160.54 171.62 160.961L172.344 162.167C173.298 161.594 174.012 160.813 174.472 159.639C174.919 158.497 175.113 157.014 175.113 155.048H173.707ZM173.707 126.993V155.048H175.113V126.993H173.707ZM162.072 111.889C164.09 111.5 165.792 111.745 167.217 112.422C168.649 113.102 169.848 114.242 170.815 115.712C172.758 118.668 173.707 122.882 173.707 126.993H175.113C175.113 122.709 174.131 118.197 171.99 114.94C170.915 113.304 169.534 111.965 167.821 111.151C166.101 110.334 164.092 110.067 161.806 110.507L162.072 111.889ZM149.73 145.99C149.73 141.299 149.869 133.252 151.532 126.103C152.364 122.528 153.566 119.225 155.288 116.688C157.003 114.162 159.209 112.426 162.069 111.889L161.809 110.507C158.489 111.13 155.99 113.149 154.125 115.898C152.267 118.635 151.014 122.124 150.162 125.784C148.459 133.104 148.323 141.293 148.323 145.99H149.73ZM149.73 155.048V145.99H148.323V155.048H149.73ZM151.927 160.961C151.216 160.535 150.688 159.983 150.323 159.111C149.947 158.212 149.73 156.938 149.73 155.048H148.323C148.323 157.023 148.547 158.51 149.026 159.654C149.516 160.826 150.257 161.6 151.203 162.167L151.927 160.961ZM152.268 162.337V161.564H150.861V162.337H152.268ZM137.879 163.041H151.565V161.634H137.879V163.041ZM137.176 161.564V162.337H138.583V161.564H137.176ZM139.714 155.048C139.714 156.938 139.497 158.212 139.121 159.111C138.756 159.983 138.228 160.535 137.517 160.961L138.241 162.167C139.187 161.6 139.928 160.826 140.418 159.654C140.897 158.51 141.121 157.023 141.121 155.048H139.714ZM139.714 117.715V155.048H141.121V117.715H139.714ZM137.775 113.109C138.281 113.184 138.61 113.296 138.838 113.436C139.049 113.566 139.208 113.743 139.334 114.026C139.469 114.327 139.569 114.753 139.632 115.372C139.694 115.988 139.714 116.753 139.714 117.715H141.121C141.121 116.743 141.101 115.92 141.031 115.232C140.963 114.547 140.842 113.95 140.618 113.451C140.386 112.933 140.048 112.53 139.576 112.239C139.121 111.958 138.582 111.807 137.984 111.717L137.775 113.109ZM137.176 111.64V112.413H138.583V111.64H137.176ZM148.093 108.525L137.719 110.955L138.04 112.325L148.414 109.895L148.093 108.525ZM149.026 108.507H148.254V109.913H149.026V108.507ZM149.73 133.73V109.21H148.323V133.73H149.73ZM166.795 108.507C163.365 108.507 160.542 109.338 158.227 110.8C155.915 112.26 154.148 114.323 152.787 116.734C150.077 121.534 148.935 127.788 148.327 133.658L149.726 133.803C150.331 127.965 151.452 121.958 154.012 117.425C155.286 115.169 156.905 113.298 158.978 111.989C161.046 110.683 163.603 109.913 166.795 109.913V108.507ZM183.721 128.624C183.27 116.207 175.774 108.507 166.795 108.507V109.913C174.812 109.913 181.884 116.792 182.316 128.675L183.721 128.624ZM183.829 129.801L183.719 128.586L182.318 128.713L182.428 129.928L183.829 129.801ZM199.683 108.507C193.855 108.507 189.838 111.126 187.14 115.126C184.469 119.086 183.098 124.379 182.431 129.778L183.827 129.951C184.484 124.636 185.817 119.602 188.306 115.913C190.767 112.264 194.365 109.913 199.683 109.913V108.507ZM216.607 128.578C215.935 122.027 214.026 117.013 211.101 113.624C208.159 110.217 204.236 108.507 199.683 108.507V109.913C203.849 109.913 207.376 111.462 210.036 114.543C212.712 117.643 214.554 122.349 215.207 128.721L216.607 128.578ZM218.619 148.454C218.106 143.034 217.404 135.612 216.606 128.57L215.208 128.729C216.004 135.756 216.706 143.165 217.219 148.586L218.619 148.454ZM218.619 148.449L218.619 148.447L217.22 148.593L217.22 148.595L218.619 148.449ZM296.859 153.565L296.858 153.562L295.469 153.784L295.47 153.787L296.859 153.565ZM296.861 153.579L296.86 153.571L295.469 153.78L295.47 153.788L296.861 153.579ZM297.067 154.949C297.015 154.587 296.944 154.124 296.861 153.577L295.47 153.79C295.554 154.34 295.624 154.793 295.674 155.146L297.067 154.949ZM300.828 160.454C300.004 160.094 299.255 159.759 298.609 159.028C297.968 158.302 297.372 157.113 297.067 154.949L295.674 155.146C296.004 157.486 296.676 158.964 297.555 159.959C298.43 160.949 299.451 161.388 300.265 161.743L300.828 160.454ZM301.869 160.951C301.527 160.759 301.164 160.601 300.828 160.454L300.265 161.743C300.613 161.896 300.91 162.026 301.179 162.177L301.869 160.951ZM302.227 162.337V161.564H300.82V162.337H302.227ZM287.838 163.041H301.524V161.634H287.838V163.041ZM287.135 161.564V162.337H288.542V161.564H287.135ZM289.563 155.048C289.563 156.947 289.371 158.225 289.018 159.126C288.678 159.996 288.178 160.54 287.476 160.961L288.201 162.167C289.155 161.594 289.869 160.813 290.328 159.639C290.775 158.497 290.97 157.014 290.97 155.048H289.563ZM289.563 117.715V155.048H290.97V117.715H289.563ZM287.729 113.108C288.203 113.183 288.51 113.292 288.721 113.428C288.917 113.555 289.069 113.729 289.193 114.017C289.47 114.661 289.563 115.75 289.563 117.715H290.97C290.97 115.813 290.897 114.418 290.485 113.46C290.264 112.947 289.94 112.541 289.484 112.247C289.043 111.962 288.522 111.809 287.948 111.718L287.729 113.108ZM287.135 111.64V112.413H288.542V111.64H287.135ZM297.957 108.555C296.08 109.289 293.537 109.887 291.436 110.303C290.39 110.51 289.465 110.671 288.801 110.779C288.469 110.833 288.203 110.875 288.02 110.902C287.929 110.916 287.858 110.926 287.811 110.933C287.787 110.937 287.769 110.939 287.758 110.941C287.752 110.942 287.747 110.942 287.744 110.943C287.743 110.943 287.742 110.943 287.741 110.943C287.741 110.943 287.741 110.943 287.74 110.943C287.74 110.943 287.74 110.943 287.74 110.943C287.74 110.943 287.74 110.943 287.838 111.64C287.936 112.336 287.936 112.336 287.937 112.336C287.937 112.336 287.937 112.336 287.937 112.336C287.937 112.336 287.938 112.336 287.938 112.336C287.939 112.336 287.94 112.336 287.942 112.336C287.945 112.335 287.95 112.334 287.957 112.333C287.97 112.332 287.989 112.329 288.014 112.325C288.063 112.318 288.136 112.307 288.23 112.293C288.418 112.265 288.69 112.223 289.028 112.167C289.704 112.057 290.645 111.894 291.709 111.683C293.826 111.264 296.47 110.646 298.469 109.865L297.957 108.555ZM299.983 107.626C299.323 107.947 298.539 108.327 297.957 108.555L298.469 109.865C299.114 109.613 299.955 109.204 300.597 108.892L299.983 107.626ZM299.976 107.63L299.975 107.63L300.604 108.888L300.605 108.888L299.976 107.63ZM301.924 108.251C301.944 108.228 302.017 108.142 302.063 108.012C302.088 107.943 302.124 107.808 302.092 107.64C302.056 107.448 301.945 107.289 301.799 107.189C301.673 107.102 301.551 107.077 301.487 107.068C301.418 107.059 301.362 107.061 301.327 107.064C301.26 107.069 301.204 107.083 301.176 107.091C301.07 107.119 300.946 107.172 300.851 107.214C300.636 107.309 300.323 107.461 299.983 107.626L300.598 108.892C300.948 108.721 301.234 108.583 301.421 108.5C301.527 108.453 301.555 108.445 301.538 108.45C301.531 108.452 301.494 108.462 301.44 108.466C301.413 108.468 301.362 108.471 301.299 108.462C301.24 108.454 301.122 108.431 300.999 108.345C300.856 108.247 300.746 108.091 300.71 107.902C300.679 107.737 300.715 107.606 300.738 107.541C300.781 107.421 300.847 107.347 300.853 107.339L301.924 108.251ZM296.859 153.565C296.261 149.663 294.98 141.292 295.136 132.387C295.293 123.446 296.899 114.146 301.924 108.251L300.853 107.338C295.492 113.628 293.888 123.363 293.73 132.362C293.571 141.398 294.87 149.873 295.468 153.778L296.859 153.565ZM296.859 153.569L296.859 153.567L295.468 153.775L295.468 153.777L296.859 153.569ZM76.2131 159.18C75.6183 158.823 75.1608 158.384 74.7986 157.67C74.4244 156.931 74.1361 155.868 73.9549 154.237L72.5569 154.392C72.7465 156.099 73.0607 157.352 73.5438 158.306C74.039 159.282 74.6938 159.909 75.4893 160.386L76.2131 159.18ZM76.5545 160.432V159.783H75.1479V160.432H76.5545ZM64.4505 161.136H75.8512V159.729H64.4505V161.136ZM63.7471 159.783V160.432H65.1538V159.783H63.7471ZM65.3257 154.378C65.4619 155.876 65.4071 156.932 65.1884 157.688C64.9793 158.41 64.6208 158.861 64.0886 159.18L64.8123 160.386C65.6705 159.872 66.2389 159.118 66.5396 158.079C66.8306 157.073 66.8685 155.812 66.7266 154.251L65.3257 154.378ZM64.0181 140.098C64.5318 145.994 65.1008 152.525 65.328 154.399L66.7244 154.23C66.501 152.387 65.935 145.893 65.4194 139.976L64.0181 140.098ZM63.1942 130.839C63.3757 132.726 63.6856 136.283 64.0181 140.098L65.4194 139.976C65.0873 136.164 64.7767 132.6 64.5945 130.704L63.1942 130.839ZM51.8885 118.207C53.7564 117.838 55.3193 118.028 56.6299 118.592C57.9458 119.158 59.0521 120.121 59.9682 121.364C61.8117 123.866 62.8311 127.435 63.195 130.846L64.5937 130.697C64.2161 127.157 63.15 123.311 61.1006 120.53C60.0702 119.131 58.7782 117.985 57.1859 117.3C55.5884 116.613 53.7334 116.409 51.6157 116.827L51.8885 118.207ZM40.2206 146.714C40.2206 142.859 40.6812 136.142 42.4172 130.157C43.2853 127.164 44.4612 124.394 46.0278 122.261C47.5893 120.135 49.5124 118.674 51.8877 118.207L51.6166 116.827C48.8013 117.38 46.5997 119.106 44.894 121.428C43.1932 123.744 41.9592 126.686 41.0662 129.765C39.2801 135.922 38.8139 142.784 38.8139 146.714H40.2206ZM40.2206 154.315V146.714H38.8139V154.315H40.2206ZM41.9182 159.18C41.3495 158.839 40.9467 158.402 40.6703 157.696C40.3814 156.959 40.2206 155.903 40.2206 154.315H38.8139C38.8139 155.971 38.9774 157.232 39.3606 158.209C39.7561 159.219 40.3729 159.893 41.1945 160.386L41.9182 159.18ZM42.2597 160.432V159.783H40.853V160.432H42.2597ZM30.063 161.136H41.5564V159.729H30.063V161.136ZM29.3596 159.783V160.432H30.7663V159.783H29.3596ZM31.4915 154.315C31.4915 155.904 31.3302 156.956 31.0332 157.689C30.7501 158.387 30.3319 158.825 29.7181 159.17L30.4078 160.396C31.277 159.907 31.9247 159.233 32.3368 158.217C32.735 157.235 32.8981 155.969 32.8981 154.315H31.4915ZM31.4915 100.741V154.315H32.8981V100.741H31.4915ZM29.9586 96.9872C30.3759 97.0497 30.636 97.14 30.8092 97.2467C30.9656 97.343 31.0842 97.4728 31.1822 97.6916C31.2884 97.9284 31.3708 98.2717 31.4226 98.7863C31.4739 99.2974 31.4915 99.9348 31.4915 100.741H32.8981C32.8981 99.9245 32.8809 99.2295 32.8222 98.6456C32.7639 98.0654 32.6609 97.5513 32.4659 97.1161C32.2627 96.6629 31.9642 96.3061 31.5471 96.0491C31.1467 95.8024 30.6769 95.6725 30.1673 95.596L29.9586 96.9872ZM29.3596 95.5501V96.2916H30.7663V95.5501H29.3596ZM38.6224 92.9172L29.9096 94.8637L30.2163 96.2365L38.929 94.29L38.6224 92.9172ZM39.5172 92.9003H38.7757V94.307H39.5172V92.9003ZM40.2206 138.836V93.6036H38.8139V138.836H40.2206ZM55.9231 115.146C49.5854 115.146 45.5528 118.491 43.0029 123.109C40.4764 127.686 39.3763 133.549 38.8179 138.761L40.2165 138.911C40.7704 133.742 41.8485 128.111 44.2344 123.789C46.5971 119.51 50.2113 116.552 55.9231 116.552V115.146ZM71.7312 132.092C71.1628 126.408 69.2119 122.164 66.3718 119.336C63.5282 116.505 59.845 115.146 55.9231 115.146V116.552C59.509 116.552 62.8238 117.788 65.3793 120.333C67.9384 122.881 69.7877 126.794 70.3315 132.232L71.7312 132.092ZM73.4217 148.773C72.9908 144.225 72.4007 137.995 71.7302 132.083L70.3325 132.241C71.0012 138.138 71.5903 144.356 72.0213 148.906L73.4217 148.773ZM73.422 148.776L73.4217 148.774L72.0212 148.905L72.0214 148.907L73.422 148.776ZM73.9552 154.239C73.8286 153.068 73.6473 151.155 73.4219 148.775L72.0215 148.908C72.2464 151.282 72.4288 153.208 72.5566 154.39L73.9552 154.239ZM24.487 27.0588C27.3632 27.0588 30.7352 27.9761 33.9883 29.3601C37.2337 30.7408 40.3047 32.562 42.5681 34.3162L43.4298 33.2043C41.0652 31.3718 37.8885 29.4907 34.539 28.0657C31.1973 26.6439 27.6273 25.6521 24.487 25.6521V27.0588ZM7.48306 40.7882C7.93441 37.1209 9.1656 33.7097 11.7431 31.214C14.3113 28.7274 18.3103 27.0588 24.487 27.0588V25.6521C18.0525 25.6521 13.6633 27.3967 10.7646 30.2034C7.87536 33.0009 6.56116 36.7631 6.08691 40.6163L7.48306 40.7882ZM27.2768 59.295C22.092 57.6768 16.7607 56.0054 12.8988 53.2284C10.9823 51.8503 9.45648 50.2182 8.49514 48.2116C7.53595 46.2094 7.11585 43.787 7.48311 40.7877L6.08686 40.6167C5.69139 43.8464 6.13659 46.5443 7.22653 48.8193C8.31433 51.0899 10.0215 52.892 12.0776 54.3705C16.161 57.3068 21.7336 59.0385 26.8577 60.6378L27.2768 59.295ZM42.8851 71.9264C43.1539 70.0737 42.8376 68.482 42.0419 67.1094C41.2545 65.751 40.0255 64.6549 38.5439 63.7281C35.6029 61.8883 31.4746 60.6052 27.2768 59.295L26.8577 60.6378C31.1164 61.967 35.0444 63.1982 37.7979 64.9206C39.1634 65.7748 40.1912 66.7217 40.8249 67.8149C41.4504 68.8937 41.7196 70.1621 41.493 71.7245L42.8851 71.9264ZM26.9167 81.7848C31.1982 81.7848 34.9758 80.6852 37.791 78.9144C40.5983 77.1485 42.5016 74.6752 42.8857 71.9226L41.4925 71.7282C41.1824 73.9508 39.6147 76.1054 37.042 77.7237C34.4771 79.3371 30.9656 80.3781 26.9167 80.3781V81.7848ZM3.37553 63.6867C5.37891 67.8113 8.58718 72.3167 12.6162 75.7996C16.6434 79.281 21.5442 81.7848 26.9167 81.7848V80.3781C21.992 80.3781 17.4055 78.0803 13.5361 74.7354C9.66862 71.3921 6.57126 67.0464 4.64085 63.0721L3.37553 63.6867ZM3.42969 64.0827H4.00819V62.676H3.42969V64.0827ZM1.68833 75.0939L4.11802 63.5239L2.74137 63.2348L0.311673 74.8048L1.68833 75.0939ZM23.5614 81.9979C14.3727 81.9979 7.57401 78.9437 1.41865 74.3842L0.581352 75.5145C6.92156 80.211 14.0068 83.4045 23.5614 83.4045V81.9979ZM45.0744 66.6814C44.4181 75.3232 36.3008 81.9979 23.5614 81.9979V83.4045C36.7388 83.4045 45.745 76.4266 46.4771 66.7879L45.0744 66.6814ZM26.0775 50.5971C30.9984 52.2934 35.9326 53.9996 39.5653 56.4815C43.1562 58.9347 45.385 62.0792 45.074 66.6873L46.4775 66.782C46.8321 61.5282 44.2214 57.9588 40.3588 55.32C36.5382 52.7098 31.405 50.9457 26.5359 49.2672L26.0775 50.5971ZM8.97794 36.464C8.76913 38.4626 9.1861 40.186 10.0922 41.6818C10.9903 43.1645 12.3473 44.3889 13.9696 45.4434C17.195 47.5399 21.6386 49.067 26.0775 50.5971L26.5359 49.2672C22.043 47.7185 17.7857 46.2462 14.7362 44.264C13.221 43.2791 12.0472 42.1943 11.2953 40.9531C10.5515 39.725 10.1994 38.3097 10.377 36.6101L8.97794 36.464ZM22.5201 26.6934C14.3734 26.6934 9.60949 31.2844 8.97931 36.4519L10.3756 36.6222C10.9025 32.3023 14.9317 28.1001 22.5201 28.1001V26.6934ZM40.7673 44.1636C38.9412 39.1568 36.1385 34.8114 32.9305 31.7073C29.7333 28.6138 26.0673 26.6934 22.5201 26.6934V28.1001C25.5678 28.1001 28.9017 29.7665 31.9523 32.7182C34.9921 35.6595 37.685 39.8179 39.4457 44.6456L40.7673 44.1636ZM40.685 43.7013H40.1065V45.108H40.685V43.7013ZM42.3117 33.6108L39.9977 44.2552L41.3723 44.554L43.6863 33.9097L42.3117 33.6108Z" fill="black" mask="url(#path-1-outside-1_33_2)"/>
</svg>
